<?xml version="1.0" encoding="utf-8"?>
<!-- Generator: Adobe Illustrator 19.2.1, SVG Export Plug-In . SVG Version: 6.00 Build 0)  -->
<!DOCTYPE svg PUBLIC "-//W3C//DTD SVG 1.1//EN" "http://www.w3.org/Graphics/SVG/1.1/DTD/svg11.dtd">
<svg version="1.1" id="Layer_1" xmlns="http://www.w3.org/2000/svg" xmlns:xlink="http://www.w3.org/1999/xlink" x="0px" y="0px"
	 width="100px" height="100px" viewBox="0 0 100 100" style="enable-background:new 0 0 100 100;" xml:space="preserve">
<style type="text/css">
	.st0{fill:#FFFFFF;}
</style>
<title>stop</title>
<path class="st0" d="M50,0C22.4,0,0,22.4,0,50s22.4,50,50,50s50-22.4,50-50S77.6,0,50,0z M50,92.3C26.6,92.3,7.7,73.4,7.7,50
	S26.6,7.7,50,7.7S92.3,26.6,92.3,50S73.4,92.3,50,92.3z"/>
<g>
	<path class="st0" d="M31.8,31.2c0-0.6,0.5-1.1,1.1-1.1h14.2c0.6,0,1.1,0.5,1.1,1.1v37.6c0,0.6-0.5,1.1-1.1,1.1H32.9
		c-0.6,0-1.1-0.5-1.1-1.1V31.2z"/>
	<path class="st0" d="M51.8,31.2c0-0.6,0.5-1.1,1.1-1.1h14.2c0.6,0,1.1,0.5,1.1,1.1v37.6c0,0.6-0.5,1.1-1.1,1.1H52.9
		c-0.6,0-1.1-0.5-1.1-1.1V31.2z"/>
</g>
</svg>
